<mxfile host="app.diagrams.net" modified="2022-02-15T00:14:32.164Z" agent="5.0 (Windows NT 10.0; Win64; x64) AppleWebKit/537.36 (KHTML, like Gecko) Chrome/98.0.4758.82 Safari/537.36" etag="4-ft7o3oQmR6sX6byR-u" version="16.5.2" type="github" pages="3">
  <diagram id="3am3MWbP5PsgSIlDmy36" name="Page-1">
    <mxGraphModel dx="2643" dy="1164" grid="0" gridSize="10" guides="1" tooltips="1" connect="1" arrows="1" fold="1" page="1" pageScale="1" pageWidth="827" pageHeight="1169" math="0" shadow="0">
      <root>
        <mxCell id="0" />
        <mxCell id="1" parent="0" />
        <mxCell id="l0MNihK00M1IA3VTCOsr-1" value="" style="rounded=0;whiteSpace=wrap;html=1;fontSize=14;strokeWidth=2;fillColor=#f5f5f5;strokeColor=#666666;fontColor=#333333;" parent="1" vertex="1">
          <mxGeometry x="-6" y="464" width="1398" height="1945" as="geometry" />
        </mxCell>
        <mxCell id="JkIb7CXmYl9X7y8F0MtA-6" value="" style="rounded=1;whiteSpace=wrap;html=1;fontSize=14;strokeColor=#6c8ebf;strokeWidth=2;fillColor=#dae8fc;" parent="1" vertex="1">
          <mxGeometry x="193.5" y="551" width="1099.5" height="1651" as="geometry" />
        </mxCell>
        <mxCell id="cu5gm9QUt52b1lqdMHIw-3" value="&lt;span style=&quot;font-size: 14px&quot;&gt;&lt;b&gt;Админ&lt;/b&gt;&lt;/span&gt;" style="shape=umlActor;verticalLabelPosition=bottom;verticalAlign=top;html=1;outlineConnect=0;strokeWidth=2;" parent="1" vertex="1">
          <mxGeometry x="109" y="1185" width="30" height="60" as="geometry" />
        </mxCell>
        <mxCell id="cu5gm9QUt52b1lqdMHIw-4" value="&lt;span style=&quot;font-size: 14px&quot;&gt;&lt;b&gt;Доктор&lt;/b&gt;&lt;/span&gt;" style="shape=umlActor;verticalLabelPosition=bottom;verticalAlign=top;html=1;outlineConnect=0;strokeWidth=2;" parent="1" vertex="1">
          <mxGeometry x="87" y="839" width="30" height="60" as="geometry" />
        </mxCell>
        <mxCell id="cu5gm9QUt52b1lqdMHIw-7" value="Смотреть информацию о пациенте" style="ellipse;whiteSpace=wrap;html=1;strokeWidth=2;fontStyle=1;fontSize=15;" parent="1" vertex="1">
          <mxGeometry x="293" y="593" width="250" height="60" as="geometry" />
        </mxCell>
        <mxCell id="cu5gm9QUt52b1lqdMHIw-8" value="&lt;span style=&quot;font-size: 15px;&quot;&gt;&lt;span style=&quot;font-size: 15px;&quot;&gt;Контакт с пациентом&lt;/span&gt;&lt;/span&gt;" style="ellipse;whiteSpace=wrap;html=1;strokeWidth=2;fontSize=15;fontStyle=1" parent="1" vertex="1">
          <mxGeometry x="827" y="877" width="240" height="70" as="geometry" />
        </mxCell>
        <mxCell id="cu5gm9QUt52b1lqdMHIw-9" value="&lt;span style=&quot;font-size: 15px;&quot;&gt;&lt;span style=&quot;font-size: 15px;&quot;&gt;Посмотреть статистику заболеваний в регионе&lt;/span&gt;&lt;/span&gt;" style="ellipse;whiteSpace=wrap;html=1;strokeWidth=2;fontStyle=1;fontSize=15;" parent="1" vertex="1">
          <mxGeometry x="961" y="964" width="260" height="80" as="geometry" />
        </mxCell>
        <mxCell id="cu5gm9QUt52b1lqdMHIw-10" value="Управление списком студентов" style="ellipse;whiteSpace=wrap;html=1;strokeWidth=2;fontSize=14;fontStyle=1" parent="1" vertex="1">
          <mxGeometry x="540" y="710" width="240" height="70" as="geometry" />
        </mxCell>
        <mxCell id="cu5gm9QUt52b1lqdMHIw-11" value="&lt;span style=&quot;font-size: 14px;&quot;&gt;&lt;b style=&quot;font-size: 14px;&quot;&gt;Контрольный аккаунты врачи&amp;nbsp;&lt;/b&gt;&lt;/span&gt;" style="ellipse;whiteSpace=wrap;html=1;strokeWidth=2;fontSize=14;" parent="1" vertex="1">
          <mxGeometry x="602" y="1220" width="200" height="60" as="geometry" />
        </mxCell>
        <mxCell id="cu5gm9QUt52b1lqdMHIw-12" value="&lt;span style=&quot;font-size: 13px&quot;&gt;&lt;b&gt;Отправлять отчеты о состоянии здоровья в Минздрав региона&lt;/b&gt;&lt;/span&gt;" style="ellipse;whiteSpace=wrap;html=1;strokeWidth=2;" parent="1" vertex="1">
          <mxGeometry x="310" y="1101" width="240" height="68" as="geometry" />
        </mxCell>
        <mxCell id="cu5gm9QUt52b1lqdMHIw-13" value="&lt;span style=&quot;font-size: 15px;&quot;&gt;&lt;span style=&quot;font-size: 15px;&quot;&gt;Оставить заметку о пациенте&lt;/span&gt;&lt;/span&gt;" style="ellipse;whiteSpace=wrap;html=1;strokeWidth=2;fontSize=15;fontStyle=1" parent="1" vertex="1">
          <mxGeometry x="550" y="790" width="220" height="80" as="geometry" />
        </mxCell>
        <mxCell id="cu5gm9QUt52b1lqdMHIw-14" value="&lt;span style=&quot;font-size: 14px;&quot;&gt;&lt;span style=&quot;font-size: 14px;&quot;&gt;Контрольный аккаунты пациентов&lt;/span&gt;&lt;/span&gt;" style="ellipse;whiteSpace=wrap;html=1;strokeWidth=2;fontStyle=1;fontSize=14;" parent="1" vertex="1">
          <mxGeometry x="581" y="1144" width="275" height="70" as="geometry" />
        </mxCell>
        <mxCell id="cu5gm9QUt52b1lqdMHIw-25" value="&lt;span style=&quot;font-size: 15px;&quot;&gt;&lt;span style=&quot;font-size: 15px;&quot;&gt;управленческий аккаунт&lt;/span&gt;&lt;/span&gt;" style="ellipse;whiteSpace=wrap;html=1;strokeWidth=2;fontSize=15;fontStyle=1" parent="1" vertex="1">
          <mxGeometry x="560" y="624" width="210" height="60" as="geometry" />
        </mxCell>
        <mxCell id="cu5gm9QUt52b1lqdMHIw-26" value="&lt;span style=&quot;font-size: 15px;&quot;&gt;&lt;span style=&quot;font-size: 15px;&quot;&gt;Предлагайте новые болезни&lt;/span&gt;&lt;/span&gt;" style="ellipse;whiteSpace=wrap;html=1;strokeWidth=2;fontSize=15;fontStyle=1" parent="1" vertex="1">
          <mxGeometry x="540" y="710" width="240" height="70" as="geometry" />
        </mxCell>
        <mxCell id="JkIb7CXmYl9X7y8F0MtA-9" value="&lt;span style=&quot;font-size: 14px&quot;&gt;&lt;b&gt;Пациент&lt;/b&gt;&lt;/span&gt;" style="shape=umlActor;verticalLabelPosition=bottom;verticalAlign=top;html=1;outlineConnect=0;strokeWidth=2;" parent="1" vertex="1">
          <mxGeometry x="43" y="1715" width="30" height="60" as="geometry" />
        </mxCell>
        <mxCell id="JkIb7CXmYl9X7y8F0MtA-14" value="добавить болезни и симптомы болезни в базу данных" style="ellipse;whiteSpace=wrap;html=1;fontSize=14;strokeColor=#000000;strokeWidth=2;fontStyle=1" parent="1" vertex="1">
          <mxGeometry x="480" y="1370" width="376" height="80" as="geometry" />
        </mxCell>
        <mxCell id="JkIb7CXmYl9X7y8F0MtA-15" value="&lt;span&gt;Добавить места для аптек и больниц&lt;/span&gt;" style="ellipse;whiteSpace=wrap;html=1;fontSize=14;strokeColor=#000000;strokeWidth=2;fontStyle=1" parent="1" vertex="1">
          <mxGeometry x="494" y="1290" width="298" height="54" as="geometry" />
        </mxCell>
        <mxCell id="JkIb7CXmYl9X7y8F0MtA-20" value="&lt;span style=&quot;&quot;&gt;ищет свою болезнь&lt;/span&gt;" style="ellipse;whiteSpace=wrap;html=1;fontSize=14;strokeColor=#000000;strokeWidth=2;fontStyle=1" parent="1" vertex="1">
          <mxGeometry x="265" y="1569" width="239" height="71" as="geometry" />
        </mxCell>
        <mxCell id="JkIb7CXmYl9X7y8F0MtA-21" value="&lt;span style=&quot;&quot;&gt;Поиск аптек&lt;/span&gt;" style="ellipse;whiteSpace=wrap;html=1;fontSize=14;strokeColor=#000000;strokeWidth=2;fontStyle=1" parent="1" vertex="1">
          <mxGeometry x="502" y="1753.5" width="239" height="56" as="geometry" />
        </mxCell>
        <mxCell id="JkIb7CXmYl9X7y8F0MtA-22" value="&lt;span style=&quot;&quot;&gt;Узнайте о болезнях, распространяющихся в регионе, прямо сейчас&lt;/span&gt;" style="ellipse;whiteSpace=wrap;html=1;fontSize=14;strokeColor=#000000;strokeWidth=2;fontStyle=1" parent="1" vertex="1">
          <mxGeometry x="562" y="1564.5" width="343" height="80" as="geometry" />
        </mxCell>
        <mxCell id="JkIb7CXmYl9X7y8F0MtA-23" value="&lt;span style=&quot;&quot;&gt;Контакт с врачами&lt;/span&gt;" style="ellipse;whiteSpace=wrap;html=1;fontSize=14;strokeColor=#000000;strokeWidth=2;fontStyle=1" parent="1" vertex="1">
          <mxGeometry x="397" y="1656" width="239" height="59" as="geometry" />
        </mxCell>
        <mxCell id="JkIb7CXmYl9X7y8F0MtA-24" value="&lt;span style=&quot;&quot;&gt;Поиск больниц&lt;/span&gt;" style="ellipse;whiteSpace=wrap;html=1;fontSize=14;strokeColor=#000000;strokeWidth=2;fontStyle=1" parent="1" vertex="1">
          <mxGeometry x="669" y="1848" width="239" height="56" as="geometry" />
        </mxCell>
        <mxCell id="JkIb7CXmYl9X7y8F0MtA-25" value="Знание типа и состояния его болезни" style="ellipse;whiteSpace=wrap;html=1;fontSize=14;strokeColor=#000000;strokeWidth=2;fontStyle=1" parent="1" vertex="1">
          <mxGeometry x="284" y="1968" width="297" height="64" as="geometry" />
        </mxCell>
        <mxCell id="JkIb7CXmYl9X7y8F0MtA-26" value="Читайте последние новости и советы о его болезни" style="ellipse;whiteSpace=wrap;html=1;fontSize=14;strokeColor=#000000;strokeWidth=2;fontStyle=1" parent="1" vertex="1">
          <mxGeometry x="636" y="1972" width="366" height="63" as="geometry" />
        </mxCell>
        <mxCell id="l0MNihK00M1IA3VTCOsr-2" value="Обновить" style="ellipse;whiteSpace=wrap;html=1;fontSize=15;strokeColor=#000000;strokeWidth=2;fontStyle=1" parent="1" vertex="1">
          <mxGeometry x="846" y="721" width="120" height="69" as="geometry" />
        </mxCell>
        <mxCell id="l0MNihK00M1IA3VTCOsr-3" value="добавлять" style="ellipse;whiteSpace=wrap;html=1;fontSize=15;strokeColor=#000000;strokeWidth=2;fontStyle=1" parent="1" vertex="1">
          <mxGeometry x="1055" y="617" width="120" height="80" as="geometry" />
        </mxCell>
        <mxCell id="l0MNihK00M1IA3VTCOsr-4" value="модифицировать" style="ellipse;whiteSpace=wrap;html=1;fontSize=15;strokeColor=#000000;strokeWidth=2;fontStyle=1" parent="1" vertex="1">
          <mxGeometry x="1062" y="715.5" width="155" height="80" as="geometry" />
        </mxCell>
        <mxCell id="l0MNihK00M1IA3VTCOsr-5" value="Удалить" style="ellipse;whiteSpace=wrap;html=1;fontSize=15;strokeColor=#000000;strokeWidth=2;fontStyle=1" parent="1" vertex="1">
          <mxGeometry x="1055" y="812" width="120" height="80" as="geometry" />
        </mxCell>
        <mxCell id="l0MNihK00M1IA3VTCOsr-7" value="" style="endArrow=none;html=1;rounded=0;sketch=1;fontSize=14;strokeColor=#000000;strokeWidth=1;" parent="1" source="cu5gm9QUt52b1lqdMHIw-4" target="cu5gm9QUt52b1lqdMHIw-7" edge="1">
          <mxGeometry width="50" height="50" relative="1" as="geometry">
            <mxPoint x="295" y="684" as="sourcePoint" />
            <mxPoint x="345" y="634" as="targetPoint" />
          </mxGeometry>
        </mxCell>
        <mxCell id="l0MNihK00M1IA3VTCOsr-8" value="" style="endArrow=classic;html=1;rounded=0;sketch=1;fontSize=14;strokeColor=#000000;strokeWidth=1;entryX=1;entryY=0.5;entryDx=0;entryDy=0;" parent="1" source="l0MNihK00M1IA3VTCOsr-2" target="cu5gm9QUt52b1lqdMHIw-25" edge="1">
          <mxGeometry width="50" height="50" relative="1" as="geometry">
            <mxPoint x="714" y="804" as="sourcePoint" />
            <mxPoint x="764" y="754" as="targetPoint" />
          </mxGeometry>
        </mxCell>
        <mxCell id="l0MNihK00M1IA3VTCOsr-9" value="« extends »" style="html=1;verticalAlign=bottom;endArrow=open;dashed=1;endSize=8;rounded=0;sketch=1;fontSize=14;strokeColor=#000000;strokeWidth=1;" parent="1" source="l0MNihK00M1IA3VTCOsr-3" target="l0MNihK00M1IA3VTCOsr-2" edge="1">
          <mxGeometry relative="1" as="geometry">
            <mxPoint x="779" y="779" as="sourcePoint" />
            <mxPoint x="699" y="779" as="targetPoint" />
            <Array as="points" />
          </mxGeometry>
        </mxCell>
        <mxCell id="l0MNihK00M1IA3VTCOsr-12" value="« extends »" style="html=1;verticalAlign=bottom;endArrow=open;dashed=1;endSize=8;rounded=0;sketch=1;fontSize=14;strokeColor=#000000;strokeWidth=1;exitX=0;exitY=0.5;exitDx=0;exitDy=0;" parent="1" source="l0MNihK00M1IA3VTCOsr-4" target="l0MNihK00M1IA3VTCOsr-2" edge="1">
          <mxGeometry relative="1" as="geometry">
            <mxPoint x="1075.9278302409457" y="690.0161504179632" as="sourcePoint" />
            <mxPoint x="962.6236968914368" y="743.7848535026187" as="targetPoint" />
            <Array as="points" />
          </mxGeometry>
        </mxCell>
        <mxCell id="l0MNihK00M1IA3VTCOsr-13" value="« extends »" style="html=1;verticalAlign=bottom;endArrow=open;dashed=1;endSize=8;rounded=0;sketch=1;fontSize=14;strokeColor=#000000;strokeWidth=1;exitX=0;exitY=0.5;exitDx=0;exitDy=0;entryX=0.5;entryY=1;entryDx=0;entryDy=0;" parent="1" source="l0MNihK00M1IA3VTCOsr-5" target="l0MNihK00M1IA3VTCOsr-2" edge="1">
          <mxGeometry relative="1" as="geometry">
            <mxPoint x="1085.9278302409457" y="700.0161504179632" as="sourcePoint" />
            <mxPoint x="972.6236968914368" y="753.7848535026187" as="targetPoint" />
            <Array as="points" />
          </mxGeometry>
        </mxCell>
        <mxCell id="l0MNihK00M1IA3VTCOsr-14" value="" style="endArrow=classic;html=1;rounded=0;sketch=1;fontSize=14;strokeColor=#000000;strokeWidth=1;exitX=0;exitY=0.5;exitDx=0;exitDy=0;" parent="1" source="l0MNihK00M1IA3VTCOsr-2" target="cu5gm9QUt52b1lqdMHIw-26" edge="1">
          <mxGeometry width="50" height="50" relative="1" as="geometry">
            <mxPoint x="879.4133084171649" y="738.1562620801967" as="sourcePoint" />
            <mxPoint x="780" y="664" as="targetPoint" />
          </mxGeometry>
        </mxCell>
        <mxCell id="l0MNihK00M1IA3VTCOsr-15" value="" style="endArrow=classic;html=1;rounded=0;sketch=1;fontSize=14;strokeColor=#000000;strokeWidth=1;entryX=1;entryY=0.5;entryDx=0;entryDy=0;exitX=0;exitY=1;exitDx=0;exitDy=0;" parent="1" source="l0MNihK00M1IA3VTCOsr-2" target="cu5gm9QUt52b1lqdMHIw-13" edge="1">
          <mxGeometry width="50" height="50" relative="1" as="geometry">
            <mxPoint x="889.4133084171649" y="748.1562620801967" as="sourcePoint" />
            <mxPoint x="789.5208104586709" y="751.8752729291848" as="targetPoint" />
          </mxGeometry>
        </mxCell>
        <mxCell id="l0MNihK00M1IA3VTCOsr-16" value="" style="endArrow=none;html=1;rounded=0;sketch=1;fontSize=14;strokeColor=#000000;strokeWidth=1;" parent="1" target="cu5gm9QUt52b1lqdMHIw-25" edge="1">
          <mxGeometry width="50" height="50" relative="1" as="geometry">
            <mxPoint x="126.99999999999977" y="868.0174187455029" as="sourcePoint" />
            <mxPoint x="409.8177218378737" y="660.946178059088" as="targetPoint" />
          </mxGeometry>
        </mxCell>
        <mxCell id="l0MNihK00M1IA3VTCOsr-17" value="" style="endArrow=none;html=1;rounded=0;sketch=1;fontSize=14;strokeColor=#000000;strokeWidth=1;" parent="1" target="cu5gm9QUt52b1lqdMHIw-26" edge="1">
          <mxGeometry width="50" height="50" relative="1" as="geometry">
            <mxPoint x="136.99999999999977" y="878.0174187455029" as="sourcePoint" />
            <mxPoint x="613.5920858655063" y="688.3345191649992" as="targetPoint" />
          </mxGeometry>
        </mxCell>
        <mxCell id="l0MNihK00M1IA3VTCOsr-18" value="" style="endArrow=none;html=1;rounded=0;sketch=1;fontSize=14;strokeColor=#000000;strokeWidth=1;entryX=0;entryY=0.5;entryDx=0;entryDy=0;" parent="1" target="cu5gm9QUt52b1lqdMHIw-13" edge="1">
          <mxGeometry width="50" height="50" relative="1" as="geometry">
            <mxPoint x="146.99999999999977" y="888.0174187455029" as="sourcePoint" />
            <mxPoint x="579.520365211873" y="777.9907268723932" as="targetPoint" />
          </mxGeometry>
        </mxCell>
        <mxCell id="l0MNihK00M1IA3VTCOsr-19" value="" style="endArrow=none;html=1;rounded=0;sketch=1;fontSize=14;strokeColor=#000000;strokeWidth=1;entryX=0;entryY=0.5;entryDx=0;entryDy=0;" parent="1" target="cu5gm9QUt52b1lqdMHIw-8" edge="1">
          <mxGeometry width="50" height="50" relative="1" as="geometry">
            <mxPoint x="156.99999999999977" y="898.0174187455029" as="sourcePoint" />
            <mxPoint x="560" y="839.9999999999998" as="targetPoint" />
          </mxGeometry>
        </mxCell>
        <mxCell id="l0MNihK00M1IA3VTCOsr-20" value="" style="endArrow=none;html=1;rounded=0;sketch=1;fontSize=14;strokeColor=#000000;strokeWidth=1;entryX=0;entryY=0.5;entryDx=0;entryDy=0;" parent="1" target="cu5gm9QUt52b1lqdMHIw-9" edge="1">
          <mxGeometry width="50" height="50" relative="1" as="geometry">
            <mxPoint x="166.99999999999977" y="908.0174187455029" as="sourcePoint" />
            <mxPoint x="560" y="924.9999999999998" as="targetPoint" />
          </mxGeometry>
        </mxCell>
        <mxCell id="l0MNihK00M1IA3VTCOsr-21" value="Научно исследовательский ПП для определения диагноза с помощью ИИ" style="text;align=center;fontStyle=1;verticalAlign=middle;spacingLeft=3;spacingRight=3;strokeColor=none;rotatable=0;points=[[0,0.5],[1,0.5]];portConstraint=eastwest;fontSize=21;" parent="1" vertex="1">
          <mxGeometry x="700" y="513" width="80" height="26" as="geometry" />
        </mxCell>
        <mxCell id="l0MNihK00M1IA3VTCOsr-30" value="Обновить" style="ellipse;whiteSpace=wrap;html=1;fontSize=15;strokeColor=#000000;strokeWidth=2;fontStyle=1" parent="1" vertex="1">
          <mxGeometry x="925" y="1180.5" width="120" height="69" as="geometry" />
        </mxCell>
        <mxCell id="l0MNihK00M1IA3VTCOsr-31" value="добавлять" style="ellipse;whiteSpace=wrap;html=1;fontSize=15;strokeColor=#000000;strokeWidth=2;fontStyle=1" parent="1" vertex="1">
          <mxGeometry x="1099" y="1085" width="120" height="80" as="geometry" />
        </mxCell>
        <mxCell id="l0MNihK00M1IA3VTCOsr-32" value="модифицировать" style="ellipse;whiteSpace=wrap;html=1;fontSize=15;strokeColor=#000000;strokeWidth=2;fontStyle=1" parent="1" vertex="1">
          <mxGeometry x="1106" y="1183.5" width="155" height="80" as="geometry" />
        </mxCell>
        <mxCell id="l0MNihK00M1IA3VTCOsr-33" value="Удалить" style="ellipse;whiteSpace=wrap;html=1;fontSize=15;strokeColor=#000000;strokeWidth=2;fontStyle=1" parent="1" vertex="1">
          <mxGeometry x="1099" y="1280" width="120" height="80" as="geometry" />
        </mxCell>
        <mxCell id="l0MNihK00M1IA3VTCOsr-34" value="« extends »" style="html=1;verticalAlign=bottom;endArrow=open;dashed=1;endSize=8;rounded=0;sketch=1;fontSize=14;strokeColor=#000000;strokeWidth=1;exitX=0;exitY=0.5;exitDx=0;exitDy=0;" parent="1" source="l0MNihK00M1IA3VTCOsr-31" target="l0MNihK00M1IA3VTCOsr-30" edge="1">
          <mxGeometry relative="1" as="geometry">
            <mxPoint x="1075.9966941788384" y="690.0812672346051" as="sourcePoint" />
            <mxPoint x="962.497936849586" y="743.6958827202511" as="targetPoint" />
            <Array as="points" />
          </mxGeometry>
        </mxCell>
        <mxCell id="l0MNihK00M1IA3VTCOsr-35" value="« extends »" style="html=1;verticalAlign=bottom;endArrow=open;dashed=1;endSize=8;rounded=0;sketch=1;fontSize=14;strokeColor=#000000;strokeWidth=1;" parent="1" source="l0MNihK00M1IA3VTCOsr-32" target="l0MNihK00M1IA3VTCOsr-30" edge="1">
          <mxGeometry relative="1" as="geometry">
            <mxPoint x="1109" y="1135" as="sourcePoint" />
            <mxPoint x="1030.2599103736652" y="1197.085904287515" as="targetPoint" />
            <Array as="points" />
          </mxGeometry>
        </mxCell>
        <mxCell id="l0MNihK00M1IA3VTCOsr-36" value="« extends »" style="html=1;verticalAlign=bottom;endArrow=open;dashed=1;endSize=8;rounded=0;sketch=1;fontSize=14;strokeColor=#000000;strokeWidth=1;entryX=0.5;entryY=1;entryDx=0;entryDy=0;" parent="1" source="l0MNihK00M1IA3VTCOsr-33" target="l0MNihK00M1IA3VTCOsr-30" edge="1">
          <mxGeometry relative="1" as="geometry">
            <mxPoint x="1116.264300117713" y="1230.1993290648597" as="sourcePoint" />
            <mxPoint x="1054.843087758963" y="1227.493461989957" as="targetPoint" />
            <Array as="points" />
          </mxGeometry>
        </mxCell>
        <mxCell id="l0MNihK00M1IA3VTCOsr-37" value="" style="endArrow=classic;html=1;rounded=0;sketch=1;fontSize=14;strokeColor=#000000;strokeWidth=1;exitX=0;exitY=0.5;exitDx=0;exitDy=0;" parent="1" source="l0MNihK00M1IA3VTCOsr-30" target="cu5gm9QUt52b1lqdMHIw-14" edge="1">
          <mxGeometry width="50" height="50" relative="1" as="geometry">
            <mxPoint x="929.4273785080886" y="1155.1500395799617" as="sourcePoint" />
            <mxPoint x="830" y="1081" as="targetPoint" />
          </mxGeometry>
        </mxCell>
        <mxCell id="l0MNihK00M1IA3VTCOsr-38" value="" style="endArrow=classic;html=1;rounded=0;sketch=1;fontSize=14;strokeColor=#000000;strokeWidth=1;" parent="1" source="l0MNihK00M1IA3VTCOsr-30" target="cu5gm9QUt52b1lqdMHIw-11" edge="1">
          <mxGeometry width="50" height="50" relative="1" as="geometry">
            <mxPoint x="934.9999999999977" y="1225.0000000000002" as="sourcePoint" />
            <mxPoint x="842.5475774769752" y="1208.5510132817674" as="targetPoint" />
          </mxGeometry>
        </mxCell>
        <mxCell id="l0MNihK00M1IA3VTCOsr-39" value="" style="endArrow=classic;html=1;rounded=0;sketch=1;fontSize=14;strokeColor=#000000;strokeWidth=1;exitX=0.08;exitY=0.805;exitDx=0;exitDy=0;entryX=1;entryY=0.5;entryDx=0;entryDy=0;exitPerimeter=0;" parent="1" source="l0MNihK00M1IA3VTCOsr-30" target="JkIb7CXmYl9X7y8F0MtA-15" edge="1">
          <mxGeometry width="50" height="50" relative="1" as="geometry">
            <mxPoint x="944.9999999999977" y="1235.0000000000002" as="sourcePoint" />
            <mxPoint x="806.2814385804636" y="1250.0004534838902" as="targetPoint" />
          </mxGeometry>
        </mxCell>
        <mxCell id="l0MNihK00M1IA3VTCOsr-40" value="" style="endArrow=classic;html=1;rounded=0;sketch=1;fontSize=14;strokeColor=#000000;strokeWidth=1;entryX=1;entryY=0.5;entryDx=0;entryDy=0;" parent="1" source="l0MNihK00M1IA3VTCOsr-30" target="JkIb7CXmYl9X7y8F0MtA-14" edge="1">
          <mxGeometry width="50" height="50" relative="1" as="geometry">
            <mxPoint x="954.9999999999977" y="1245.0000000000002" as="sourcePoint" />
            <mxPoint x="802.0000000000009" y="1327" as="targetPoint" />
          </mxGeometry>
        </mxCell>
        <mxCell id="l0MNihK00M1IA3VTCOsr-41" value="" style="endArrow=none;html=1;rounded=0;sketch=1;fontSize=14;strokeColor=#000000;strokeWidth=1;" parent="1" source="cu5gm9QUt52b1lqdMHIw-3" target="cu5gm9QUt52b1lqdMHIw-12" edge="1">
          <mxGeometry width="50" height="50" relative="1" as="geometry">
            <mxPoint x="166.99999999999977" y="908.0174187455029" as="sourcePoint" />
            <mxPoint x="866" y="952" as="targetPoint" />
          </mxGeometry>
        </mxCell>
        <mxCell id="l0MNihK00M1IA3VTCOsr-42" value="" style="endArrow=none;html=1;rounded=0;sketch=1;fontSize=14;strokeColor=#000000;strokeWidth=1;" parent="1" target="cu5gm9QUt52b1lqdMHIw-14" edge="1">
          <mxGeometry width="50" height="50" relative="1" as="geometry">
            <mxPoint x="149" y="1221.0554703578791" as="sourcePoint" />
            <mxPoint x="351.22536969511543" y="1167.8765393477975" as="targetPoint" />
          </mxGeometry>
        </mxCell>
        <mxCell id="l0MNihK00M1IA3VTCOsr-43" value="" style="endArrow=none;html=1;rounded=0;sketch=1;fontSize=14;strokeColor=#000000;strokeWidth=1;entryX=0;entryY=0.5;entryDx=0;entryDy=0;" parent="1" target="cu5gm9QUt52b1lqdMHIw-11" edge="1">
          <mxGeometry width="50" height="50" relative="1" as="geometry">
            <mxPoint x="159" y="1231.0554703578791" as="sourcePoint" />
            <mxPoint x="596.2338883461423" y="1198.5646981567872" as="targetPoint" />
          </mxGeometry>
        </mxCell>
        <mxCell id="l0MNihK00M1IA3VTCOsr-44" value="" style="endArrow=none;html=1;rounded=0;sketch=1;fontSize=14;strokeColor=#000000;strokeWidth=1;entryX=0;entryY=0.5;entryDx=0;entryDy=0;" parent="1" target="JkIb7CXmYl9X7y8F0MtA-15" edge="1">
          <mxGeometry width="50" height="50" relative="1" as="geometry">
            <mxPoint x="169" y="1241.0554703578791" as="sourcePoint" />
            <mxPoint x="612" y="1260" as="targetPoint" />
          </mxGeometry>
        </mxCell>
        <mxCell id="l0MNihK00M1IA3VTCOsr-45" value="" style="endArrow=none;html=1;rounded=0;sketch=1;fontSize=14;strokeColor=#000000;strokeWidth=1;entryX=0.01;entryY=0.629;entryDx=0;entryDy=0;entryPerimeter=0;" parent="1" source="cu5gm9QUt52b1lqdMHIw-3" target="JkIb7CXmYl9X7y8F0MtA-14" edge="1">
          <mxGeometry width="50" height="50" relative="1" as="geometry">
            <mxPoint x="179" y="1251.0554703578791" as="sourcePoint" />
            <mxPoint x="503.99999999999955" y="1327" as="targetPoint" />
          </mxGeometry>
        </mxCell>
        <mxCell id="l0MNihK00M1IA3VTCOsr-46" value="&lt;span style=&quot;font-size: 15px;&quot;&gt;&lt;span style=&quot;font-size: 15px;&quot;&gt;управленческий аккаунт&lt;/span&gt;&lt;/span&gt;" style="ellipse;whiteSpace=wrap;html=1;strokeWidth=2;fontSize=15;fontStyle=1" parent="1" vertex="1">
          <mxGeometry x="683.5" y="1685" width="210" height="60" as="geometry" />
        </mxCell>
        <mxCell id="l0MNihK00M1IA3VTCOsr-47" value="Обновить" style="ellipse;whiteSpace=wrap;html=1;fontSize=15;strokeColor=#000000;strokeWidth=2;fontStyle=1" parent="1" vertex="1">
          <mxGeometry x="928" y="1677" width="120" height="69" as="geometry" />
        </mxCell>
        <mxCell id="l0MNihK00M1IA3VTCOsr-48" value="добавлять" style="ellipse;whiteSpace=wrap;html=1;fontSize=15;strokeColor=#000000;strokeWidth=2;fontStyle=1" parent="1" vertex="1">
          <mxGeometry x="1119" y="1573" width="120" height="80" as="geometry" />
        </mxCell>
        <mxCell id="l0MNihK00M1IA3VTCOsr-49" value="модифицировать" style="ellipse;whiteSpace=wrap;html=1;fontSize=15;strokeColor=#000000;strokeWidth=2;fontStyle=1" parent="1" vertex="1">
          <mxGeometry x="1126" y="1671.5" width="155" height="80" as="geometry" />
        </mxCell>
        <mxCell id="l0MNihK00M1IA3VTCOsr-50" value="Удалить" style="ellipse;whiteSpace=wrap;html=1;fontSize=15;strokeColor=#000000;strokeWidth=2;fontStyle=1" parent="1" vertex="1">
          <mxGeometry x="1119" y="1768" width="120" height="80" as="geometry" />
        </mxCell>
        <mxCell id="l0MNihK00M1IA3VTCOsr-51" value="" style="endArrow=none;html=1;rounded=0;sketch=1;fontSize=14;strokeColor=#000000;strokeWidth=1;entryX=0.02;entryY=0.631;entryDx=0;entryDy=0;entryPerimeter=0;" parent="1" source="JkIb7CXmYl9X7y8F0MtA-9" target="JkIb7CXmYl9X7y8F0MtA-20" edge="1">
          <mxGeometry width="50" height="50" relative="1" as="geometry">
            <mxPoint x="149" y="1233.560707138092" as="sourcePoint" />
            <mxPoint x="493.75999999999976" y="1430.3199999999997" as="targetPoint" />
          </mxGeometry>
        </mxCell>
        <mxCell id="l0MNihK00M1IA3VTCOsr-52" value="" style="endArrow=none;html=1;rounded=0;sketch=1;fontSize=14;strokeColor=#000000;strokeWidth=1;entryX=0;entryY=0.5;entryDx=0;entryDy=0;" parent="1" target="l0MNihK00M1IA3VTCOsr-46" edge="1">
          <mxGeometry width="50" height="50" relative="1" as="geometry">
            <mxPoint x="83" y="1745.7074086315988" as="sourcePoint" />
            <mxPoint x="279.7800000000002" y="1623.801" as="targetPoint" />
          </mxGeometry>
        </mxCell>
        <mxCell id="l0MNihK00M1IA3VTCOsr-53" value="" style="endArrow=none;html=1;rounded=0;sketch=1;fontSize=14;strokeColor=#000000;strokeWidth=1;entryX=0;entryY=0.5;entryDx=0;entryDy=0;exitX=0.5;exitY=0.5;exitDx=0;exitDy=0;exitPerimeter=0;" parent="1" source="JkIb7CXmYl9X7y8F0MtA-9" target="JkIb7CXmYl9X7y8F0MtA-22" edge="1">
          <mxGeometry width="50" height="50" relative="1" as="geometry">
            <mxPoint x="93" y="1755.7074086315988" as="sourcePoint" />
            <mxPoint x="743.0000000000073" y="1748" as="targetPoint" />
          </mxGeometry>
        </mxCell>
        <mxCell id="l0MNihK00M1IA3VTCOsr-54" value="" style="endArrow=none;html=1;rounded=0;sketch=1;fontSize=14;strokeColor=#000000;strokeWidth=1;entryX=0;entryY=0.5;entryDx=0;entryDy=0;exitX=0.5;exitY=0.5;exitDx=0;exitDy=0;exitPerimeter=0;" parent="1" target="JkIb7CXmYl9X7y8F0MtA-23" edge="1">
          <mxGeometry width="50" height="50" relative="1" as="geometry">
            <mxPoint x="68" y="1755" as="sourcePoint" />
            <mxPoint x="572.0000000000018" y="1614.5" as="targetPoint" />
          </mxGeometry>
        </mxCell>
        <mxCell id="l0MNihK00M1IA3VTCOsr-55" value="" style="endArrow=none;html=1;rounded=0;sketch=1;fontSize=14;strokeColor=#000000;strokeWidth=1;entryX=0;entryY=0.5;entryDx=0;entryDy=0;exitX=0.5;exitY=0.5;exitDx=0;exitDy=0;exitPerimeter=0;" parent="1" target="JkIb7CXmYl9X7y8F0MtA-21" edge="1">
          <mxGeometry width="50" height="50" relative="1" as="geometry">
            <mxPoint x="78" y="1765" as="sourcePoint" />
            <mxPoint x="406.9999999999991" y="1695.5" as="targetPoint" />
          </mxGeometry>
        </mxCell>
        <mxCell id="l0MNihK00M1IA3VTCOsr-56" value="" style="endArrow=none;html=1;rounded=0;sketch=1;fontSize=14;strokeColor=#000000;strokeWidth=1;exitX=0.5;exitY=0.5;exitDx=0;exitDy=0;exitPerimeter=0;entryX=0;entryY=0.5;entryDx=0;entryDy=0;" parent="1" target="JkIb7CXmYl9X7y8F0MtA-24" edge="1">
          <mxGeometry width="50" height="50" relative="1" as="geometry">
            <mxPoint x="88" y="1775" as="sourcePoint" />
            <mxPoint x="507.99999999999636" y="1821" as="targetPoint" />
          </mxGeometry>
        </mxCell>
        <mxCell id="l0MNihK00M1IA3VTCOsr-57" value="" style="endArrow=none;html=1;rounded=0;sketch=1;fontSize=14;strokeColor=#000000;strokeWidth=1;exitX=0.5;exitY=0.5;exitDx=0;exitDy=0;exitPerimeter=0;" parent="1" target="JkIb7CXmYl9X7y8F0MtA-26" edge="1">
          <mxGeometry width="50" height="50" relative="1" as="geometry">
            <mxPoint x="98" y="1785" as="sourcePoint" />
            <mxPoint x="678.9999999999959" y="1886" as="targetPoint" />
          </mxGeometry>
        </mxCell>
        <mxCell id="l0MNihK00M1IA3VTCOsr-58" value="" style="endArrow=none;html=1;rounded=0;sketch=1;fontSize=14;strokeColor=#000000;strokeWidth=1;exitX=0.5;exitY=0.5;exitDx=0;exitDy=0;exitPerimeter=0;" parent="1" target="JkIb7CXmYl9X7y8F0MtA-25" edge="1">
          <mxGeometry width="50" height="50" relative="1" as="geometry">
            <mxPoint x="108" y="1795" as="sourcePoint" />
            <mxPoint x="738.4464541058342" y="1986.1267875973517" as="targetPoint" />
          </mxGeometry>
        </mxCell>
        <mxCell id="l0MNihK00M1IA3VTCOsr-59" value="" style="endArrow=classic;html=1;rounded=0;sketch=1;fontSize=14;strokeColor=#000000;strokeWidth=1;exitX=0;exitY=0.5;exitDx=0;exitDy=0;" parent="1" source="l0MNihK00M1IA3VTCOsr-47" target="l0MNihK00M1IA3VTCOsr-46" edge="1">
          <mxGeometry width="50" height="50" relative="1" as="geometry">
            <mxPoint x="973.6943606766595" y="1257.2516558564323" as="sourcePoint" />
            <mxPoint x="866.0000000000014" y="1420" as="targetPoint" />
          </mxGeometry>
        </mxCell>
        <mxCell id="l0MNihK00M1IA3VTCOsr-60" value="« extends »" style="html=1;verticalAlign=bottom;endArrow=open;dashed=1;endSize=8;rounded=0;sketch=1;fontSize=14;strokeColor=#000000;strokeWidth=1;exitX=0;exitY=0.5;exitDx=0;exitDy=0;" parent="1" source="l0MNihK00M1IA3VTCOsr-48" target="l0MNihK00M1IA3VTCOsr-47" edge="1">
          <mxGeometry relative="1" as="geometry">
            <mxPoint x="1117.5967637053072" y="1309.3687691062119" as="sourcePoint" />
            <mxPoint x="994.9999999999995" y="1259.5000000000002" as="targetPoint" />
            <Array as="points" />
          </mxGeometry>
        </mxCell>
        <mxCell id="l0MNihK00M1IA3VTCOsr-61" value="« extends »" style="html=1;verticalAlign=bottom;endArrow=open;dashed=1;endSize=8;rounded=0;sketch=1;fontSize=14;strokeColor=#000000;strokeWidth=1;exitX=0;exitY=0.5;exitDx=0;exitDy=0;entryX=1.006;entryY=0.637;entryDx=0;entryDy=0;entryPerimeter=0;" parent="1" source="l0MNihK00M1IA3VTCOsr-49" target="l0MNihK00M1IA3VTCOsr-47" edge="1">
          <mxGeometry relative="1" as="geometry">
            <mxPoint x="1128.9999999999827" y="1623" as="sourcePoint" />
            <mxPoint x="1034.5750293451742" y="1694.1511041833382" as="targetPoint" />
            <Array as="points" />
          </mxGeometry>
        </mxCell>
        <mxCell id="l0MNihK00M1IA3VTCOsr-62" value="« extends »" style="html=1;verticalAlign=bottom;endArrow=open;dashed=1;endSize=8;rounded=0;sketch=1;fontSize=14;strokeColor=#000000;strokeWidth=1;exitX=0;exitY=0.5;exitDx=0;exitDy=0;entryX=0.5;entryY=1;entryDx=0;entryDy=0;" parent="1" source="l0MNihK00M1IA3VTCOsr-50" target="l0MNihK00M1IA3VTCOsr-47" edge="1">
          <mxGeometry relative="1" as="geometry">
            <mxPoint x="1136" y="1721.4999999999995" as="sourcePoint" />
            <mxPoint x="1044.5750293451742" y="1704.1511041833382" as="targetPoint" />
            <Array as="points" />
          </mxGeometry>
        </mxCell>
        <mxCell id="xo7TQ_qvnP5djM1iDkYM-1" value="&lt;span style=&quot;font-size: 15px&quot;&gt;&lt;span style=&quot;font-size: 15px&quot;&gt;Посмотреть свою статистику&amp;nbsp;&lt;/span&gt;&lt;/span&gt;" style="ellipse;whiteSpace=wrap;html=1;strokeWidth=2;fontStyle=1;fontSize=15;" parent="1" vertex="1">
          <mxGeometry x="400" y="972" width="322" height="80" as="geometry" />
        </mxCell>
        <mxCell id="xo7TQ_qvnP5djM1iDkYM-2" value="" style="endArrow=none;html=1;rounded=0;sketch=1;fontSize=14;strokeColor=#000000;strokeWidth=1;entryX=0.012;entryY=0.642;entryDx=0;entryDy=0;entryPerimeter=0;exitX=1;exitY=1;exitDx=0;exitDy=0;exitPerimeter=0;" parent="1" source="cu5gm9QUt52b1lqdMHIw-4" target="xo7TQ_qvnP5djM1iDkYM-1" edge="1">
          <mxGeometry width="50" height="50" relative="1" as="geometry">
            <mxPoint x="177" y="918.0174187455029" as="sourcePoint" />
            <mxPoint x="971.0000000000005" y="1013.9999999999998" as="targetPoint" />
          </mxGeometry>
        </mxCell>
      </root>
    </mxGraphModel>
  </diagram>
  <diagram id="sA5qALhH-WjZBngkNInu" name="Page-2">
    <mxGraphModel dx="1297" dy="2000" grid="0" gridSize="10" guides="1" tooltips="1" connect="1" arrows="1" fold="1" page="1" pageScale="1" pageWidth="827" pageHeight="1169" math="0" shadow="0">
      <root>
        <mxCell id="GWPmTN5CwfsV_2RFxvjX-0" />
        <mxCell id="GWPmTN5CwfsV_2RFxvjX-1" parent="GWPmTN5CwfsV_2RFxvjX-0" />
        <mxCell id="Zo67queinTyvsY4LAaOX-0" value="" style="rounded=0;whiteSpace=wrap;html=1;fontSize=14;strokeColor=#6c8ebf;strokeWidth=2;fillColor=#dae8fc;" parent="GWPmTN5CwfsV_2RFxvjX-1" vertex="1">
          <mxGeometry x="25" width="902" height="702" as="geometry" />
        </mxCell>
        <mxCell id="Zo67queinTyvsY4LAaOX-53" value="USER" style="swimlane;fontStyle=1;childLayout=stackLayout;horizontal=1;startSize=30;horizontalStack=0;resizeParent=1;resizeParentMax=0;resizeLast=0;collapsible=1;marginBottom=0;fontSize=14;strokeColor=#000000;strokeWidth=2;align=center;" parent="GWPmTN5CwfsV_2RFxvjX-1" vertex="1">
          <mxGeometry x="414" y="4" width="166" height="480" as="geometry" />
        </mxCell>
        <mxCell id="Zo67queinTyvsY4LAaOX-54" value="ID User" style="text;strokeColor=none;fillColor=none;align=left;verticalAlign=middle;spacingLeft=4;spacingRight=4;overflow=hidden;points=[[0,0.5],[1,0.5]];portConstraint=eastwest;rotatable=0;fontSize=14;fontStyle=1" parent="Zo67queinTyvsY4LAaOX-53" vertex="1">
          <mxGeometry y="30" width="166" height="30" as="geometry" />
        </mxCell>
        <mxCell id="Zo67queinTyvsY4LAaOX-55" value="name " style="text;strokeColor=none;fillColor=none;align=left;verticalAlign=middle;spacingLeft=4;spacingRight=4;overflow=hidden;points=[[0,0.5],[1,0.5]];portConstraint=eastwest;rotatable=0;fontSize=14;fontStyle=1" parent="Zo67queinTyvsY4LAaOX-53" vertex="1">
          <mxGeometry y="60" width="166" height="30" as="geometry" />
        </mxCell>
        <mxCell id="Zo67queinTyvsY4LAaOX-57" value="Date of birth " style="text;strokeColor=none;fillColor=none;align=left;verticalAlign=middle;spacingLeft=4;spacingRight=4;overflow=hidden;points=[[0,0.5],[1,0.5]];portConstraint=eastwest;rotatable=0;fontSize=14;fontStyle=1" parent="Zo67queinTyvsY4LAaOX-53" vertex="1">
          <mxGeometry y="90" width="166" height="30" as="geometry" />
        </mxCell>
        <mxCell id="Zo67queinTyvsY4LAaOX-61" value="specialty " style="text;strokeColor=none;fillColor=none;align=left;verticalAlign=middle;spacingLeft=4;spacingRight=4;overflow=hidden;points=[[0,0.5],[1,0.5]];portConstraint=eastwest;rotatable=0;fontSize=14;fontStyle=1" parent="Zo67queinTyvsY4LAaOX-53" vertex="1">
          <mxGeometry y="120" width="166" height="30" as="geometry" />
        </mxCell>
        <mxCell id="Zo67queinTyvsY4LAaOX-62" value="phone " style="text;strokeColor=none;fillColor=none;align=left;verticalAlign=middle;spacingLeft=4;spacingRight=4;overflow=hidden;points=[[0,0.5],[1,0.5]];portConstraint=eastwest;rotatable=0;fontSize=14;fontStyle=1" parent="Zo67queinTyvsY4LAaOX-53" vertex="1">
          <mxGeometry y="150" width="166" height="30" as="geometry" />
        </mxCell>
        <mxCell id="Zo67queinTyvsY4LAaOX-58" value="Email " style="text;strokeColor=none;fillColor=none;align=left;verticalAlign=middle;spacingLeft=4;spacingRight=4;overflow=hidden;points=[[0,0.5],[1,0.5]];portConstraint=eastwest;rotatable=0;fontSize=14;fontStyle=1" parent="Zo67queinTyvsY4LAaOX-53" vertex="1">
          <mxGeometry y="180" width="166" height="30" as="geometry" />
        </mxCell>
        <mxCell id="Zo67queinTyvsY4LAaOX-59" value="Password " style="text;strokeColor=none;fillColor=none;align=left;verticalAlign=middle;spacingLeft=4;spacingRight=4;overflow=hidden;points=[[0,0.5],[1,0.5]];portConstraint=eastwest;rotatable=0;fontSize=14;fontStyle=1" parent="Zo67queinTyvsY4LAaOX-53" vertex="1">
          <mxGeometry y="210" width="166" height="30" as="geometry" />
        </mxCell>
        <mxCell id="Zo67queinTyvsY4LAaOX-60" value="Address " style="text;strokeColor=none;fillColor=none;align=left;verticalAlign=middle;spacingLeft=4;spacingRight=4;overflow=hidden;points=[[0,0.5],[1,0.5]];portConstraint=eastwest;rotatable=0;fontSize=14;fontStyle=1" parent="Zo67queinTyvsY4LAaOX-53" vertex="1">
          <mxGeometry y="240" width="166" height="30" as="geometry" />
        </mxCell>
        <mxCell id="AHzOt2kERd6M581VtSwq-2" value="Awards " style="text;strokeColor=none;fillColor=none;align=left;verticalAlign=middle;spacingLeft=4;spacingRight=4;overflow=hidden;points=[[0,0.5],[1,0.5]];portConstraint=eastwest;rotatable=0;fontSize=14;fontStyle=1" parent="Zo67queinTyvsY4LAaOX-53" vertex="1">
          <mxGeometry y="270" width="166" height="30" as="geometry" />
        </mxCell>
        <mxCell id="AHzOt2kERd6M581VtSwq-3" value="photo " style="text;strokeColor=none;fillColor=none;align=left;verticalAlign=middle;spacingLeft=4;spacingRight=4;overflow=hidden;points=[[0,0.5],[1,0.5]];portConstraint=eastwest;rotatable=0;fontSize=14;fontStyle=1" parent="Zo67queinTyvsY4LAaOX-53" vertex="1">
          <mxGeometry y="300" width="166" height="30" as="geometry" />
        </mxCell>
        <mxCell id="RWMKatvzDCcIOLaWMt04-6" value="id_notes" style="text;strokeColor=none;fillColor=none;align=left;verticalAlign=middle;spacingLeft=4;spacingRight=4;overflow=hidden;points=[[0,0.5],[1,0.5]];portConstraint=eastwest;rotatable=0;fontSize=14;fontStyle=1" vertex="1" parent="Zo67queinTyvsY4LAaOX-53">
          <mxGeometry y="330" width="166" height="30" as="geometry" />
        </mxCell>
        <mxCell id="RWMKatvzDCcIOLaWMt04-7" value="the size" style="text;strokeColor=none;fillColor=none;align=left;verticalAlign=middle;spacingLeft=4;spacingRight=4;overflow=hidden;points=[[0,0.5],[1,0.5]];portConstraint=eastwest;rotatable=0;fontSize=14;fontStyle=1" vertex="1" parent="Zo67queinTyvsY4LAaOX-53">
          <mxGeometry y="360" width="166" height="30" as="geometry" />
        </mxCell>
        <mxCell id="RWMKatvzDCcIOLaWMt04-8" value="the weight" style="text;strokeColor=none;fillColor=none;align=left;verticalAlign=middle;spacingLeft=4;spacingRight=4;overflow=hidden;points=[[0,0.5],[1,0.5]];portConstraint=eastwest;rotatable=0;fontSize=14;fontStyle=1" vertex="1" parent="Zo67queinTyvsY4LAaOX-53">
          <mxGeometry y="390" width="166" height="30" as="geometry" />
        </mxCell>
        <mxCell id="RWMKatvzDCcIOLaWMt04-9" value="height" style="text;strokeColor=none;fillColor=none;align=left;verticalAlign=middle;spacingLeft=4;spacingRight=4;overflow=hidden;points=[[0,0.5],[1,0.5]];portConstraint=eastwest;rotatable=0;fontSize=14;fontStyle=1" vertex="1" parent="Zo67queinTyvsY4LAaOX-53">
          <mxGeometry y="420" width="166" height="30" as="geometry" />
        </mxCell>
        <mxCell id="RWMKatvzDCcIOLaWMt04-4" value="id_hospital" style="text;strokeColor=none;fillColor=none;align=left;verticalAlign=middle;spacingLeft=4;spacingRight=4;overflow=hidden;points=[[0,0.5],[1,0.5]];portConstraint=eastwest;rotatable=0;fontSize=14;fontStyle=1" vertex="1" parent="Zo67queinTyvsY4LAaOX-53">
          <mxGeometry y="450" width="166" height="30" as="geometry" />
        </mxCell>
        <mxCell id="Zo67queinTyvsY4LAaOX-63" value="Заметки доктор" style="swimlane;fontStyle=1;childLayout=stackLayout;horizontal=1;startSize=30;horizontalStack=0;resizeParent=1;resizeParentMax=0;resizeLast=0;collapsible=1;marginBottom=0;fontSize=14;strokeColor=#000000;strokeWidth=2;" parent="GWPmTN5CwfsV_2RFxvjX-1" vertex="1">
          <mxGeometry x="760" y="240" width="140" height="150" as="geometry" />
        </mxCell>
        <mxCell id="Zo67queinTyvsY4LAaOX-64" value="ID Заметки" style="text;strokeColor=none;fillColor=none;align=left;verticalAlign=middle;spacingLeft=4;spacingRight=4;overflow=hidden;points=[[0,0.5],[1,0.5]];portConstraint=eastwest;rotatable=0;fontSize=14;fontStyle=1" parent="Zo67queinTyvsY4LAaOX-63" vertex="1">
          <mxGeometry y="30" width="140" height="30" as="geometry" />
        </mxCell>
        <mxCell id="Zo67queinTyvsY4LAaOX-65" value="name " style="text;strokeColor=none;fillColor=none;align=left;verticalAlign=middle;spacingLeft=4;spacingRight=4;overflow=hidden;points=[[0,0.5],[1,0.5]];portConstraint=eastwest;rotatable=0;fontSize=14;fontStyle=1" parent="Zo67queinTyvsY4LAaOX-63" vertex="1">
          <mxGeometry y="60" width="140" height="30" as="geometry" />
        </mxCell>
        <mxCell id="Zo67queinTyvsY4LAaOX-66" value="content " style="text;strokeColor=none;fillColor=none;align=left;verticalAlign=middle;spacingLeft=4;spacingRight=4;overflow=hidden;points=[[0,0.5],[1,0.5]];portConstraint=eastwest;rotatable=0;fontSize=14;fontStyle=1" parent="Zo67queinTyvsY4LAaOX-63" vertex="1">
          <mxGeometry y="90" width="140" height="30" as="geometry" />
        </mxCell>
        <mxCell id="ptqKoXUw6ihi00K2RHjS-4" value="date " style="text;strokeColor=none;fillColor=none;align=left;verticalAlign=middle;spacingLeft=4;spacingRight=4;overflow=hidden;points=[[0,0.5],[1,0.5]];portConstraint=eastwest;rotatable=0;fontSize=14;fontStyle=1" parent="Zo67queinTyvsY4LAaOX-63" vertex="1">
          <mxGeometry y="120" width="140" height="30" as="geometry" />
        </mxCell>
        <mxCell id="Zo67queinTyvsY4LAaOX-72" value="Аптеки" style="swimlane;fontStyle=1;childLayout=stackLayout;horizontal=1;startSize=30;horizontalStack=0;resizeParent=1;resizeParentMax=0;resizeLast=0;collapsible=1;marginBottom=0;fontSize=14;strokeColor=#000000;strokeWidth=2;" parent="GWPmTN5CwfsV_2RFxvjX-1" vertex="1">
          <mxGeometry x="749" y="30" width="140" height="150" as="geometry" />
        </mxCell>
        <mxCell id="Zo67queinTyvsY4LAaOX-73" value="ID Аптеки" style="text;strokeColor=none;fillColor=none;align=left;verticalAlign=middle;spacingLeft=4;spacingRight=4;overflow=hidden;points=[[0,0.5],[1,0.5]];portConstraint=eastwest;rotatable=0;fontSize=14;fontStyle=1" parent="Zo67queinTyvsY4LAaOX-72" vertex="1">
          <mxGeometry y="30" width="140" height="30" as="geometry" />
        </mxCell>
        <mxCell id="Zo67queinTyvsY4LAaOX-74" value="name " style="text;strokeColor=none;fillColor=none;align=left;verticalAlign=middle;spacingLeft=4;spacingRight=4;overflow=hidden;points=[[0,0.5],[1,0.5]];portConstraint=eastwest;rotatable=0;fontSize=14;fontStyle=1" parent="Zo67queinTyvsY4LAaOX-72" vertex="1">
          <mxGeometry y="60" width="140" height="30" as="geometry" />
        </mxCell>
        <mxCell id="RWMKatvzDCcIOLaWMt04-10" value="phone " style="text;strokeColor=none;fillColor=none;align=left;verticalAlign=middle;spacingLeft=4;spacingRight=4;overflow=hidden;points=[[0,0.5],[1,0.5]];portConstraint=eastwest;rotatable=0;fontSize=14;fontStyle=1" vertex="1" parent="Zo67queinTyvsY4LAaOX-72">
          <mxGeometry y="90" width="140" height="30" as="geometry" />
        </mxCell>
        <mxCell id="Zo67queinTyvsY4LAaOX-75" value="Address " style="text;strokeColor=none;fillColor=none;align=left;verticalAlign=middle;spacingLeft=4;spacingRight=4;overflow=hidden;points=[[0,0.5],[1,0.5]];portConstraint=eastwest;rotatable=0;fontSize=14;fontStyle=1" parent="Zo67queinTyvsY4LAaOX-72" vertex="1">
          <mxGeometry y="120" width="140" height="30" as="geometry" />
        </mxCell>
        <mxCell id="Zo67queinTyvsY4LAaOX-80" value="Больницы" style="swimlane;fontStyle=1;childLayout=stackLayout;horizontal=1;startSize=30;horizontalStack=0;resizeParent=1;resizeParentMax=0;resizeLast=0;collapsible=1;marginBottom=0;fontSize=14;strokeColor=#000000;strokeWidth=2;" parent="GWPmTN5CwfsV_2RFxvjX-1" vertex="1">
          <mxGeometry x="67" y="115" width="140" height="150" as="geometry" />
        </mxCell>
        <mxCell id="Zo67queinTyvsY4LAaOX-81" value="ID Больницы" style="text;strokeColor=none;fillColor=none;align=left;verticalAlign=middle;spacingLeft=4;spacingRight=4;overflow=hidden;points=[[0,0.5],[1,0.5]];portConstraint=eastwest;rotatable=0;fontSize=14;fontStyle=1" parent="Zo67queinTyvsY4LAaOX-80" vertex="1">
          <mxGeometry y="30" width="140" height="30" as="geometry" />
        </mxCell>
        <mxCell id="Zo67queinTyvsY4LAaOX-82" value="name " style="text;strokeColor=none;fillColor=none;align=left;verticalAlign=middle;spacingLeft=4;spacingRight=4;overflow=hidden;points=[[0,0.5],[1,0.5]];portConstraint=eastwest;rotatable=0;fontSize=14;fontStyle=1" parent="Zo67queinTyvsY4LAaOX-80" vertex="1">
          <mxGeometry y="60" width="140" height="30" as="geometry" />
        </mxCell>
        <mxCell id="RWMKatvzDCcIOLaWMt04-11" value="phone " style="text;strokeColor=none;fillColor=none;align=left;verticalAlign=middle;spacingLeft=4;spacingRight=4;overflow=hidden;points=[[0,0.5],[1,0.5]];portConstraint=eastwest;rotatable=0;fontSize=14;fontStyle=1" vertex="1" parent="Zo67queinTyvsY4LAaOX-80">
          <mxGeometry y="90" width="140" height="30" as="geometry" />
        </mxCell>
        <mxCell id="Zo67queinTyvsY4LAaOX-83" value="Address " style="text;strokeColor=none;fillColor=none;align=left;verticalAlign=middle;spacingLeft=4;spacingRight=4;overflow=hidden;points=[[0,0.5],[1,0.5]];portConstraint=eastwest;rotatable=0;fontSize=14;fontStyle=1" parent="Zo67queinTyvsY4LAaOX-80" vertex="1">
          <mxGeometry y="120" width="140" height="30" as="geometry" />
        </mxCell>
        <mxCell id="Zo67queinTyvsY4LAaOX-84" value="Список болезней" style="swimlane;fontStyle=1;childLayout=stackLayout;horizontal=1;startSize=30;horizontalStack=0;resizeParent=1;resizeParentMax=0;resizeLast=0;collapsible=1;marginBottom=0;fontSize=14;strokeColor=#000000;strokeWidth=2;" parent="GWPmTN5CwfsV_2RFxvjX-1" vertex="1">
          <mxGeometry x="101" y="390" width="176" height="240" as="geometry" />
        </mxCell>
        <mxCell id="Zo67queinTyvsY4LAaOX-85" value="ID" style="text;strokeColor=none;fillColor=none;align=left;verticalAlign=middle;spacingLeft=4;spacingRight=4;overflow=hidden;points=[[0,0.5],[1,0.5]];portConstraint=eastwest;rotatable=0;fontSize=14;fontStyle=1" parent="Zo67queinTyvsY4LAaOX-84" vertex="1">
          <mxGeometry y="30" width="176" height="30" as="geometry" />
        </mxCell>
        <mxCell id="Zo67queinTyvsY4LAaOX-86" value="name " style="text;strokeColor=none;fillColor=none;align=left;verticalAlign=middle;spacingLeft=4;spacingRight=4;overflow=hidden;points=[[0,0.5],[1,0.5]];portConstraint=eastwest;rotatable=0;fontSize=14;fontStyle=1" parent="Zo67queinTyvsY4LAaOX-84" vertex="1">
          <mxGeometry y="60" width="176" height="30" as="geometry" />
        </mxCell>
        <mxCell id="Zo67queinTyvsY4LAaOX-87" value="Type " style="text;strokeColor=none;fillColor=none;align=left;verticalAlign=middle;spacingLeft=4;spacingRight=4;overflow=hidden;points=[[0,0.5],[1,0.5]];portConstraint=eastwest;rotatable=0;fontSize=14;fontStyle=1" parent="Zo67queinTyvsY4LAaOX-84" vertex="1">
          <mxGeometry y="90" width="176" height="30" as="geometry" />
        </mxCell>
        <mxCell id="AHzOt2kERd6M581VtSwq-0" value="photo " style="text;strokeColor=none;fillColor=none;align=left;verticalAlign=middle;spacingLeft=4;spacingRight=4;overflow=hidden;points=[[0,0.5],[1,0.5]];portConstraint=eastwest;rotatable=0;fontSize=14;fontStyle=1" parent="Zo67queinTyvsY4LAaOX-84" vertex="1">
          <mxGeometry y="120" width="176" height="30" as="geometry" />
        </mxCell>
        <mxCell id="Zo67queinTyvsY4LAaOX-92" value="Notes " style="text;strokeColor=none;fillColor=none;align=left;verticalAlign=middle;spacingLeft=4;spacingRight=4;overflow=hidden;points=[[0,0.5],[1,0.5]];portConstraint=eastwest;rotatable=0;fontSize=14;fontStyle=1" parent="Zo67queinTyvsY4LAaOX-84" vertex="1">
          <mxGeometry y="150" width="176" height="30" as="geometry" />
        </mxCell>
        <mxCell id="Zo67queinTyvsY4LAaOX-93" value="Medicines_for_treatment" style="text;strokeColor=none;fillColor=none;align=left;verticalAlign=middle;spacingLeft=4;spacingRight=4;overflow=hidden;points=[[0,0.5],[1,0.5]];portConstraint=eastwest;rotatable=0;fontSize=14;fontStyle=1" parent="Zo67queinTyvsY4LAaOX-84" vertex="1">
          <mxGeometry y="180" width="176" height="30" as="geometry" />
        </mxCell>
        <mxCell id="Zo67queinTyvsY4LAaOX-95" value="id_symptoms " style="text;strokeColor=none;fillColor=none;align=left;verticalAlign=middle;spacingLeft=4;spacingRight=4;overflow=hidden;points=[[0,0.5],[1,0.5]];portConstraint=eastwest;rotatable=0;fontSize=14;fontStyle=1" parent="Zo67queinTyvsY4LAaOX-84" vertex="1">
          <mxGeometry y="210" width="176" height="30" as="geometry" />
        </mxCell>
        <mxCell id="Zo67queinTyvsY4LAaOX-88" value="Список симптомов&#xa; болезни" style="swimlane;fontStyle=1;childLayout=stackLayout;horizontal=1;startSize=49;horizontalStack=0;resizeParent=1;resizeParentMax=0;resizeLast=0;collapsible=1;marginBottom=0;fontSize=14;strokeColor=#000000;strokeWidth=2;" parent="GWPmTN5CwfsV_2RFxvjX-1" vertex="1">
          <mxGeometry x="711" y="435" width="149" height="139" as="geometry" />
        </mxCell>
        <mxCell id="Zo67queinTyvsY4LAaOX-89" value="ID" style="text;strokeColor=none;fillColor=none;align=left;verticalAlign=middle;spacingLeft=4;spacingRight=4;overflow=hidden;points=[[0,0.5],[1,0.5]];portConstraint=eastwest;rotatable=0;fontSize=14;fontStyle=1" parent="Zo67queinTyvsY4LAaOX-88" vertex="1">
          <mxGeometry y="49" width="149" height="30" as="geometry" />
        </mxCell>
        <mxCell id="Zo67queinTyvsY4LAaOX-90" value="name " style="text;strokeColor=none;fillColor=none;align=left;verticalAlign=middle;spacingLeft=4;spacingRight=4;overflow=hidden;points=[[0,0.5],[1,0.5]];portConstraint=eastwest;rotatable=0;fontSize=14;fontStyle=1" parent="Zo67queinTyvsY4LAaOX-88" vertex="1">
          <mxGeometry y="79" width="149" height="30" as="geometry" />
        </mxCell>
        <mxCell id="AHzOt2kERd6M581VtSwq-1" value="content " style="text;strokeColor=none;fillColor=none;align=left;verticalAlign=middle;spacingLeft=4;spacingRight=4;overflow=hidden;points=[[0,0.5],[1,0.5]];portConstraint=eastwest;rotatable=0;fontSize=14;fontStyle=1" parent="Zo67queinTyvsY4LAaOX-88" vertex="1">
          <mxGeometry y="109" width="149" height="30" as="geometry" />
        </mxCell>
        <mxCell id="RWMKatvzDCcIOLaWMt04-2" value="" style="edgeStyle=entityRelationEdgeStyle;fontSize=12;html=1;endArrow=ERzeroToMany;endFill=1;startArrow=ERzeroToMany;rounded=0;entryX=0;entryY=0.5;entryDx=0;entryDy=0;exitX=1;exitY=0.5;exitDx=0;exitDy=0;" edge="1" parent="GWPmTN5CwfsV_2RFxvjX-1" source="Zo67queinTyvsY4LAaOX-95" target="Zo67queinTyvsY4LAaOX-89">
          <mxGeometry width="100" height="100" relative="1" as="geometry">
            <mxPoint x="545" y="627" as="sourcePoint" />
            <mxPoint x="645" y="527" as="targetPoint" />
          </mxGeometry>
        </mxCell>
        <mxCell id="RWMKatvzDCcIOLaWMt04-3" value="" style="edgeStyle=entityRelationEdgeStyle;fontSize=12;html=1;endArrow=ERzeroToMany;endFill=1;startArrow=ERzeroToMany;rounded=0;exitX=1;exitY=0.5;exitDx=0;exitDy=0;" edge="1" parent="GWPmTN5CwfsV_2RFxvjX-1" source="RWMKatvzDCcIOLaWMt04-6" target="Zo67queinTyvsY4LAaOX-64">
          <mxGeometry width="100" height="100" relative="1" as="geometry">
            <mxPoint x="376" y="387" as="sourcePoint" />
            <mxPoint x="476" y="287" as="targetPoint" />
          </mxGeometry>
        </mxCell>
        <mxCell id="RWMKatvzDCcIOLaWMt04-5" value="" style="edgeStyle=entityRelationEdgeStyle;fontSize=12;html=1;endArrow=ERzeroToMany;endFill=1;startArrow=ERzeroToMany;rounded=0;exitX=0;exitY=0.5;exitDx=0;exitDy=0;" edge="1" parent="GWPmTN5CwfsV_2RFxvjX-1" source="RWMKatvzDCcIOLaWMt04-4" target="Zo67queinTyvsY4LAaOX-81">
          <mxGeometry width="100" height="100" relative="1" as="geometry">
            <mxPoint x="376" y="387" as="sourcePoint" />
            <mxPoint x="476" y="287" as="targetPoint" />
          </mxGeometry>
        </mxCell>
      </root>
    </mxGraphModel>
  </diagram>
  <diagram id="DIB_3O82n_FjSl3ZQ21b" name="Page-3">
    <mxGraphModel dx="1816" dy="2333" grid="0" gridSize="10" guides="1" tooltips="1" connect="1" arrows="1" fold="1" page="1" pageScale="1" pageWidth="827" pageHeight="1169" math="0" shadow="0">
      <root>
        <mxCell id="EBonlw7OJ6cWZrAEUZhN-0" />
        <mxCell id="EBonlw7OJ6cWZrAEUZhN-1" parent="EBonlw7OJ6cWZrAEUZhN-0" />
        <mxCell id="nActssWGcPtm26iWxGLj-34" value="" style="rounded=0;whiteSpace=wrap;html=1;fontSize=14;fillColor=#eeeeee;strokeColor=#36393d;" vertex="1" parent="EBonlw7OJ6cWZrAEUZhN-1">
          <mxGeometry x="221" y="-219" width="1153" height="780" as="geometry" />
        </mxCell>
        <mxCell id="AJWbf2qDX7G0e8kSkDvD-15" value="&lt;table border=&quot;1&quot; width=&quot;100%&quot; cellpadding=&quot;4&quot; style=&quot;width: 100% ; height: 100% ; border-collapse: collapse&quot;&gt;&lt;tbody&gt;&lt;tr&gt;&lt;th&gt;&lt;span&gt;&lt;span style=&quot;white-space: pre&quot;&gt;	&lt;/span&gt;&lt;span style=&quot;white-space: pre&quot;&gt;	&lt;/span&gt;User&lt;/span&gt;&lt;/th&gt;&lt;/tr&gt;&lt;tr&gt;&lt;td&gt;Id_user :int&lt;br&gt;login : string&lt;br&gt;password : string&lt;br&gt;id_admin: int&lt;br&gt;id_doctor : int&lt;/td&gt;&lt;/tr&gt;&lt;tr&gt;&lt;td&gt;&lt;br&gt;&lt;/td&gt;&lt;/tr&gt;&lt;/tbody&gt;&lt;/table&gt;" style="text;html=1;strokeColor=#6c8ebf;fillColor=#dae8fc;overflow=fill;align=left;fontStyle=1" vertex="1" parent="EBonlw7OJ6cWZrAEUZhN-1">
          <mxGeometry x="851" y="-189" width="149" height="155" as="geometry" />
        </mxCell>
        <mxCell id="nActssWGcPtm26iWxGLj-1" value="&lt;table border=&quot;1&quot; width=&quot;100%&quot; cellpadding=&quot;4&quot; style=&quot;width: 100% ; height: 100% ; border-collapse: collapse&quot;&gt;&lt;tbody&gt;&lt;tr&gt;&lt;th&gt;&lt;span&gt;&lt;span&gt;	&lt;/span&gt;&lt;span&gt;	&lt;/span&gt;Patient&lt;/span&gt;&lt;/th&gt;&lt;/tr&gt;&lt;tr&gt;&lt;td&gt;id_patient :int&lt;br&gt;full_name : string&lt;br&gt;email :string&lt;br&gt;phone : int&lt;br&gt;gender: strign&lt;br&gt;date_of_birth : date&lt;br&gt;id_patient_fk : int&lt;br&gt;id_photo_fk: int&lt;br&gt;id_bio_fk: int&lt;br&gt;id_history_fk: int&lt;/td&gt;&lt;/tr&gt;&lt;tr&gt;&lt;td&gt;login(email,password)&lt;br&gt;search_hospital()&lt;br&gt;search_illnes()&lt;br&gt;search_pharmacie)&lt;br&gt;&lt;br&gt;&lt;/td&gt;&lt;/tr&gt;&lt;/tbody&gt;&lt;/table&gt;" style="text;html=1;strokeColor=#6c8ebf;fillColor=#dae8fc;overflow=fill;align=left;fontStyle=1" vertex="1" parent="EBonlw7OJ6cWZrAEUZhN-1">
          <mxGeometry x="561" y="35" width="160" height="270.5" as="geometry" />
        </mxCell>
        <mxCell id="nActssWGcPtm26iWxGLj-2" value="&lt;table border=&quot;1&quot; width=&quot;100%&quot; cellpadding=&quot;4&quot; style=&quot;width: 100% ; height: 100% ; border-collapse: collapse&quot;&gt;&lt;tbody&gt;&lt;tr&gt;&lt;th&gt;&lt;span&gt;&lt;span&gt;	&lt;/span&gt;&lt;span&gt;	&lt;/span&gt;Doctor&lt;/span&gt;&lt;/th&gt;&lt;/tr&gt;&lt;tr&gt;&lt;td&gt;id_doctor :int&lt;br&gt;Full_Name: string&lt;br&gt;email :string&lt;br&gt;phone : int&lt;br&gt;gender: strign&lt;br&gt;date_of_birth : date&lt;br&gt;id_hospiatl : int&lt;br&gt;id_photo_fk: int&lt;br&gt;id_portofio_fk: int&lt;br&gt;id_user_fk: int&lt;/td&gt;&lt;/tr&gt;&lt;tr&gt;&lt;td&gt;login(email,password)&lt;br&gt;search_of_patient()&lt;br&gt;search_hospital()&lt;br&gt;&lt;br&gt;&lt;/td&gt;&lt;/tr&gt;&lt;/tbody&gt;&lt;/table&gt;" style="text;html=1;strokeColor=#6c8ebf;fillColor=#dae8fc;overflow=fill;align=left;fontStyle=1" vertex="1" parent="EBonlw7OJ6cWZrAEUZhN-1">
          <mxGeometry x="934" y="35" width="160" height="261" as="geometry" />
        </mxCell>
        <mxCell id="nActssWGcPtm26iWxGLj-4" value="&lt;table border=&quot;1&quot; width=&quot;100%&quot; cellpadding=&quot;4&quot; style=&quot;width: 100% ; height: 100% ; border-collapse: collapse&quot;&gt;&lt;tbody&gt;&lt;tr&gt;&lt;th&gt;&lt;span&gt;&lt;span&gt;	&lt;/span&gt;&lt;span&gt;	&lt;/span&gt;Pharmacy&lt;/span&gt;&lt;/th&gt;&lt;/tr&gt;&lt;tr&gt;&lt;td&gt;id_pharmacy:int&lt;br&gt;Neme: string&lt;br&gt;email :string&lt;br&gt;phone : int&lt;br&gt;password: strign&lt;br&gt;date_of_birth : date&lt;br&gt;id_photo : blob&lt;br&gt;&lt;/td&gt;&lt;/tr&gt;&lt;tr&gt;&lt;td&gt;&lt;br&gt;&lt;/td&gt;&lt;/tr&gt;&lt;/tbody&gt;&lt;/table&gt;" style="text;html=1;strokeColor=#6c8ebf;fillColor=#dae8fc;overflow=fill;align=left;fontStyle=1" vertex="1" parent="EBonlw7OJ6cWZrAEUZhN-1">
          <mxGeometry x="542" y="-189" width="160" height="163" as="geometry" />
        </mxCell>
        <mxCell id="nActssWGcPtm26iWxGLj-5" value="&lt;table border=&quot;1&quot; width=&quot;100%&quot; cellpadding=&quot;4&quot; style=&quot;width: 100% ; height: 100% ; border-collapse: collapse&quot;&gt;&lt;tbody&gt;&lt;tr&gt;&lt;th&gt;&lt;span&gt;&lt;span&gt;	&lt;/span&gt;&lt;span&gt;	&lt;/span&gt;Hospital&lt;/span&gt;&lt;/th&gt;&lt;/tr&gt;&lt;tr&gt;&lt;td&gt;Id :int&lt;br&gt;Name: string&lt;br&gt;Phone: int&lt;br&gt;Adress: string&lt;br&gt;Work_time: string&lt;br&gt;reviews: date&lt;br&gt;id_photo : blob&lt;/td&gt;&lt;/tr&gt;&lt;tr&gt;&lt;td&gt;&lt;br&gt;&lt;/td&gt;&lt;/tr&gt;&lt;/tbody&gt;&lt;/table&gt;" style="text;html=1;strokeColor=#6c8ebf;fillColor=#dae8fc;overflow=fill;align=left;fontStyle=1" vertex="1" parent="EBonlw7OJ6cWZrAEUZhN-1">
          <mxGeometry x="280" y="-189" width="160" height="163" as="geometry" />
        </mxCell>
        <mxCell id="nActssWGcPtm26iWxGLj-6" value="&lt;table border=&quot;1&quot; width=&quot;100%&quot; cellpadding=&quot;4&quot; style=&quot;width: 100% ; height: 100% ; border-collapse: collapse&quot;&gt;&lt;tbody&gt;&lt;tr&gt;&lt;th&gt;&lt;span&gt;&lt;span&gt;	&lt;/span&gt;Portfolio&lt;/span&gt;&lt;/th&gt;&lt;/tr&gt;&lt;tr&gt;&lt;td&gt;&lt;span&gt;id_Portfolio&amp;nbsp;&lt;/span&gt;:int&lt;br&gt;description: string&lt;br&gt;licenses:string&lt;br&gt;awards: string&lt;br&gt;speciality: strign&lt;br&gt;id_reviews_fk : int&lt;br&gt;id_history_fk:int&lt;/td&gt;&lt;/tr&gt;&lt;tr&gt;&lt;td&gt;&lt;br&gt;&lt;/td&gt;&lt;/tr&gt;&lt;/tbody&gt;&lt;/table&gt;" style="text;html=1;strokeColor=#6c8ebf;fillColor=#dae8fc;overflow=fill;align=left;fontStyle=1" vertex="1" parent="EBonlw7OJ6cWZrAEUZhN-1">
          <mxGeometry x="1161" y="-178" width="160" height="163" as="geometry" />
        </mxCell>
        <mxCell id="nActssWGcPtm26iWxGLj-7" value="&lt;table border=&quot;1&quot; width=&quot;100%&quot; cellpadding=&quot;4&quot; style=&quot;width: 100% ; height: 100% ; border-collapse: collapse&quot;&gt;&lt;tbody&gt;&lt;tr&gt;&lt;th&gt;&lt;span&gt;&lt;span style=&quot;white-space: pre&quot;&gt;	&lt;/span&gt;illness&lt;/span&gt;&lt;/th&gt;&lt;/tr&gt;&lt;tr&gt;&lt;td&gt;id_illness:int&lt;br&gt;Neme: string&lt;br&gt;description:string&lt;br&gt;symtoms: int&lt;br&gt;password: strign&lt;br&gt;id_medicine_fk: int&lt;br&gt;id_photo_fk&lt;/td&gt;&lt;/tr&gt;&lt;tr&gt;&lt;td&gt;&lt;br&gt;&lt;/td&gt;&lt;/tr&gt;&lt;/tbody&gt;&lt;/table&gt;" style="text;html=1;strokeColor=#6c8ebf;fillColor=#dae8fc;overflow=fill;align=left;fontStyle=1" vertex="1" parent="EBonlw7OJ6cWZrAEUZhN-1">
          <mxGeometry x="333" y="379" width="160" height="163" as="geometry" />
        </mxCell>
        <mxCell id="nActssWGcPtm26iWxGLj-8" value="&lt;table border=&quot;1&quot; width=&quot;100%&quot; cellpadding=&quot;4&quot; style=&quot;width: 100% ; height: 100% ; border-collapse: collapse&quot;&gt;&lt;tbody&gt;&lt;tr&gt;&lt;th&gt;&lt;span&gt;&lt;span style=&quot;white-space: pre&quot;&gt;	&lt;/span&gt;History&amp;nbsp;&lt;/span&gt;&lt;/th&gt;&lt;/tr&gt;&lt;tr&gt;&lt;td&gt;id_history :int&lt;br&gt;date : date&lt;br&gt;description: string&lt;br&gt;consultation: string&lt;br&gt;conclusion :string&lt;br&gt;id_illness_fk: int&lt;br&gt;id_doctor_fk: int&lt;br&gt;if_photo_fk&lt;/td&gt;&lt;/tr&gt;&lt;tr&gt;&lt;td&gt;&lt;br&gt;&lt;/td&gt;&lt;/tr&gt;&lt;/tbody&gt;&lt;/table&gt;" style="text;html=1;strokeColor=#6c8ebf;fillColor=#dae8fc;overflow=fill;align=left;fontStyle=1" vertex="1" parent="EBonlw7OJ6cWZrAEUZhN-1">
          <mxGeometry x="845.5" y="373" width="160" height="175" as="geometry" />
        </mxCell>
        <mxCell id="nActssWGcPtm26iWxGLj-10" value="&lt;table border=&quot;1&quot; width=&quot;100%&quot; cellpadding=&quot;4&quot; style=&quot;width: 100% ; height: 100% ; border-collapse: collapse&quot;&gt;&lt;tbody&gt;&lt;tr&gt;&lt;th&gt;&lt;span&gt;&lt;span style=&quot;white-space: pre&quot;&gt;	&lt;/span&gt;Medicines&lt;/span&gt;&lt;/th&gt;&lt;/tr&gt;&lt;tr&gt;&lt;td&gt;Id_user :int&lt;br&gt;Neme: string&lt;br&gt;decription:string&lt;br&gt;manufacturer: string&lt;br&gt;compound: strign&lt;br&gt;using_methode: string&lt;br&gt;contraindications :string&lt;br&gt;permesion:string&amp;nbsp;&lt;br&gt;&lt;/td&gt;&lt;/tr&gt;&lt;tr&gt;&lt;td&gt;&lt;br&gt;&lt;/td&gt;&lt;/tr&gt;&lt;/tbody&gt;&lt;/table&gt;" style="text;html=1;strokeColor=#6c8ebf;fillColor=#dae8fc;overflow=fill;align=left;fontStyle=1" vertex="1" parent="EBonlw7OJ6cWZrAEUZhN-1">
          <mxGeometry x="292" y="35" width="160" height="177" as="geometry" />
        </mxCell>
        <mxCell id="nActssWGcPtm26iWxGLj-12" value="" style="endArrow=block;endSize=16;endFill=0;html=1;rounded=0;exitX=0.5;exitY=1;exitDx=0;exitDy=0;entryX=0.25;entryY=0;entryDx=0;entryDy=0;" edge="1" parent="EBonlw7OJ6cWZrAEUZhN-1" source="nActssWGcPtm26iWxGLj-10" target="nActssWGcPtm26iWxGLj-7">
          <mxGeometry width="160" relative="1" as="geometry">
            <mxPoint x="268" y="568" as="sourcePoint" />
            <mxPoint x="428" y="568" as="targetPoint" />
          </mxGeometry>
        </mxCell>
        <mxCell id="nActssWGcPtm26iWxGLj-15" value="Поиск" style="endArrow=none;html=1;rounded=0;exitX=0.5;exitY=1;exitDx=0;exitDy=0;entryX=0.5;entryY=0;entryDx=0;entryDy=0;fontStyle=1;fontSize=14;" edge="1" parent="EBonlw7OJ6cWZrAEUZhN-1" source="nActssWGcPtm26iWxGLj-1" target="nActssWGcPtm26iWxGLj-7">
          <mxGeometry relative="1" as="geometry">
            <mxPoint x="268" y="568" as="sourcePoint" />
            <mxPoint x="428" y="568" as="targetPoint" />
          </mxGeometry>
        </mxCell>
        <mxCell id="nActssWGcPtm26iWxGLj-16" value="" style="endArrow=open;endFill=1;endSize=12;html=1;rounded=0;fontSize=14;exitX=0.5;exitY=0;exitDx=0;exitDy=0;entryX=0.5;entryY=1;entryDx=0;entryDy=0;" edge="1" parent="EBonlw7OJ6cWZrAEUZhN-1" source="nActssWGcPtm26iWxGLj-1" target="nActssWGcPtm26iWxGLj-4">
          <mxGeometry width="160" relative="1" as="geometry">
            <mxPoint x="266" y="202" as="sourcePoint" />
            <mxPoint x="426" y="202" as="targetPoint" />
          </mxGeometry>
        </mxCell>
        <mxCell id="nActssWGcPtm26iWxGLj-17" value="" style="endArrow=open;endFill=1;endSize=12;html=1;rounded=0;fontSize=14;exitX=0.25;exitY=0;exitDx=0;exitDy=0;entryX=0.5;entryY=1;entryDx=0;entryDy=0;" edge="1" parent="EBonlw7OJ6cWZrAEUZhN-1" source="nActssWGcPtm26iWxGLj-1" target="nActssWGcPtm26iWxGLj-5">
          <mxGeometry width="160" relative="1" as="geometry">
            <mxPoint x="266" y="202" as="sourcePoint" />
            <mxPoint x="426" y="202" as="targetPoint" />
          </mxGeometry>
        </mxCell>
        <mxCell id="nActssWGcPtm26iWxGLj-18" value="" style="endArrow=block;endSize=16;endFill=0;html=1;rounded=0;exitX=1;exitY=0.5;exitDx=0;exitDy=0;entryX=0.25;entryY=1;entryDx=0;entryDy=0;" edge="1" parent="EBonlw7OJ6cWZrAEUZhN-1" source="nActssWGcPtm26iWxGLj-1" target="AJWbf2qDX7G0e8kSkDvD-15">
          <mxGeometry width="160" relative="1" as="geometry">
            <mxPoint x="323" y="629" as="sourcePoint" />
            <mxPoint x="303" y="578" as="targetPoint" />
          </mxGeometry>
        </mxCell>
        <mxCell id="nActssWGcPtm26iWxGLj-19" value="" style="endArrow=block;endSize=16;endFill=0;html=1;rounded=0;exitX=0.419;exitY=0.006;exitDx=0;exitDy=0;entryX=0.5;entryY=1;entryDx=0;entryDy=0;exitPerimeter=0;" edge="1" parent="EBonlw7OJ6cWZrAEUZhN-1" source="nActssWGcPtm26iWxGLj-2" target="AJWbf2qDX7G0e8kSkDvD-15">
          <mxGeometry width="160" relative="1" as="geometry">
            <mxPoint x="360.0000000000002" y="222.5" as="sourcePoint" />
            <mxPoint x="602" y="58.00000000000023" as="targetPoint" />
          </mxGeometry>
        </mxCell>
        <mxCell id="nActssWGcPtm26iWxGLj-24" value="" style="endArrow=block;endSize=16;endFill=0;html=1;rounded=0;exitX=0;exitY=0.5;exitDx=0;exitDy=0;" edge="1" parent="EBonlw7OJ6cWZrAEUZhN-1" source="nActssWGcPtm26iWxGLj-6" target="nActssWGcPtm26iWxGLj-2">
          <mxGeometry width="160" relative="1" as="geometry">
            <mxPoint x="616.04" y="197.97800000000007" as="sourcePoint" />
            <mxPoint x="642" y="58.00000000000023" as="targetPoint" />
          </mxGeometry>
        </mxCell>
        <mxCell id="nActssWGcPtm26iWxGLj-25" value="" style="endArrow=none;html=1;rounded=0;fontSize=14;exitX=0.5;exitY=1;exitDx=0;exitDy=0;entryX=0.5;entryY=0;entryDx=0;entryDy=0;" edge="1" parent="EBonlw7OJ6cWZrAEUZhN-1" source="nActssWGcPtm26iWxGLj-2" target="nActssWGcPtm26iWxGLj-8">
          <mxGeometry relative="1" as="geometry">
            <mxPoint x="266" y="384" as="sourcePoint" />
            <mxPoint x="426" y="384" as="targetPoint" />
          </mxGeometry>
        </mxCell>
        <mxCell id="nActssWGcPtm26iWxGLj-26" value="0.*" style="resizable=0;html=1;align=left;verticalAlign=bottom;fontSize=14;" connectable="0" vertex="1" parent="nActssWGcPtm26iWxGLj-25">
          <mxGeometry x="-1" relative="1" as="geometry">
            <mxPoint x="-2" y="26" as="offset" />
          </mxGeometry>
        </mxCell>
        <mxCell id="nActssWGcPtm26iWxGLj-27" value="0.*" style="resizable=0;html=1;align=right;verticalAlign=bottom;fontSize=14;" connectable="0" vertex="1" parent="nActssWGcPtm26iWxGLj-25">
          <mxGeometry x="1" relative="1" as="geometry" />
        </mxCell>
        <mxCell id="nActssWGcPtm26iWxGLj-29" value="" style="endArrow=none;html=1;rounded=0;fontSize=14;exitX=0.75;exitY=1;exitDx=0;exitDy=0;entryX=0;entryY=0.5;entryDx=0;entryDy=0;" edge="1" parent="EBonlw7OJ6cWZrAEUZhN-1" source="nActssWGcPtm26iWxGLj-1" target="nActssWGcPtm26iWxGLj-8">
          <mxGeometry relative="1" as="geometry">
            <mxPoint x="629" y="360" as="sourcePoint" />
            <mxPoint x="735" y="510" as="targetPoint" />
          </mxGeometry>
        </mxCell>
        <mxCell id="nActssWGcPtm26iWxGLj-30" value="1.*" style="resizable=0;html=1;align=left;verticalAlign=bottom;fontSize=14;" connectable="0" vertex="1" parent="nActssWGcPtm26iWxGLj-29">
          <mxGeometry x="-1" relative="1" as="geometry">
            <mxPoint x="2" y="39" as="offset" />
          </mxGeometry>
        </mxCell>
        <mxCell id="nActssWGcPtm26iWxGLj-31" value="0.*" style="resizable=0;html=1;align=right;verticalAlign=bottom;fontSize=14;" connectable="0" vertex="1" parent="nActssWGcPtm26iWxGLj-29">
          <mxGeometry x="1" relative="1" as="geometry">
            <mxPoint x="-11" y="18" as="offset" />
          </mxGeometry>
        </mxCell>
        <mxCell id="IjqkfVSRhhA5kaKFNqFH-0" value="&lt;table border=&quot;1&quot; width=&quot;100%&quot; cellpadding=&quot;4&quot; style=&quot;width: 100% ; height: 100% ; border-collapse: collapse&quot;&gt;&lt;tbody&gt;&lt;tr&gt;&lt;th&gt;&lt;span&gt;&lt;span style=&quot;white-space: pre&quot;&gt;	&lt;/span&gt;&lt;span style=&quot;white-space: pre&quot;&gt;	&lt;/span&gt;Review&lt;/span&gt;&lt;/th&gt;&lt;/tr&gt;&lt;tr&gt;&lt;td&gt;id_review:int&lt;br&gt;id_patient : int&lt;br&gt;comments: string&lt;br&gt;&lt;/td&gt;&lt;/tr&gt;&lt;tr&gt;&lt;td&gt;&lt;br&gt;&lt;/td&gt;&lt;/tr&gt;&lt;/tbody&gt;&lt;/table&gt;" style="text;html=1;strokeColor=#6c8ebf;fillColor=#dae8fc;overflow=fill;align=left;fontStyle=1" vertex="1" parent="EBonlw7OJ6cWZrAEUZhN-1">
          <mxGeometry x="1161" y="62" width="160" height="114.25" as="geometry" />
        </mxCell>
        <mxCell id="IjqkfVSRhhA5kaKFNqFH-1" value="" style="endArrow=diamondThin;endFill=1;endSize=24;html=1;rounded=0;fontSize=14;exitX=0.5;exitY=0;exitDx=0;exitDy=0;" edge="1" parent="EBonlw7OJ6cWZrAEUZhN-1" source="IjqkfVSRhhA5kaKFNqFH-0" target="nActssWGcPtm26iWxGLj-6">
          <mxGeometry width="160" relative="1" as="geometry">
            <mxPoint x="773" y="87" as="sourcePoint" />
            <mxPoint x="933" y="87" as="targetPoint" />
          </mxGeometry>
        </mxCell>
      </root>
    </mxGraphModel>
  </diagram>
</mxfile>
